<svg xmlns="http://www.w3.org/2000/svg" xmlns:xlink="http://www.w3.org/1999/xlink" xmlns:inkscape="http://www.inkscape.org/namespaces/inkscape" version="1.1" width="452.086" height="281.646" viewBox="0 0 452.086 281.646">
<defs>
<clipPath id="clip_1">
<path transform="matrix(1,0,0,-1,0,281.646)" d="M0 281.646H452.086V0H0Z"/>
</clipPath>
</defs>
<g inkscape:groupmode="layer" inkscape:label="Logo">
<path transform="matrix(1,0,0,-1,0,281.646)" d="M412.505 65.511H296.83503V242.154H412.505Z" fill="#ffdc00"/>
<path transform="matrix(1,0,0,-1,0,281.646)" d="M386.59 39.58H39.579988V216.223H386.59Z" fill="#004c9b"/>
<path transform="matrix(1,0,0,-1,91.81,92.516498)" d="M0 0H-10.313L-10.829-.516V-29.392L-11.345-29.908H-17.532L-18.048-29.392V-.516L-18.564 0H-28.877L-29.392 .516V5.672L-28.877 6.188H0L.516 5.672V.516Z" fill="#ffffff"/>
<g clip-path="url(#clip_1)">
<path transform="matrix(1,0,0,-1,100.7197,102.3141)" d="M0 0C-3.61 0-5.672-2.578-5.672-7.219-5.672-11.859-3.61-14.438 0-14.438 3.609-14.438 5.672-11.859 5.672-7.219 5.672-2.578 3.609 0 0 0M0-20.626C-7.735-20.626-12.891-15.47-12.891-7.219-12.891 1.032-7.735 6.188 0 6.188 7.735 6.188 12.891 1.032 12.891-7.219 12.891-15.47 7.735-20.626 0-20.626" fill="#ffffff"/>
<path transform="matrix(1,0,0,-1,134.5866,102.8298)" d="M0 0H-3.609C-7.735 0-9.282-2.063-9.282-6.703V-19.079L-9.797-19.595H-15.985L-16.501-19.079V5.673L-15.985 6.188H-10.313L-9.797 5.673-9.282 4.125H-8.766C-8.766 4.125-7.735 6.188-3.094 6.188H0L.516 5.673V.516Z" fill="#ffffff"/>
<path transform="matrix(1,0,0,-1,148.8586,102.3141)" d="M0 0C-3.61 0-5.672-2.578-5.672-7.219-5.672-11.859-3.61-14.438 0-14.438 3.609-14.438 5.672-11.859 5.672-7.219 5.672-2.578 3.609 0 0 0M0-20.626C-7.735-20.626-12.891-15.47-12.891-7.219-12.891 1.032-7.735 6.188 0 6.188 7.735 6.188 12.891 1.032 12.891-7.219 12.891-15.47 7.735-20.626 0-20.626" fill="#ffffff"/>
<path transform="matrix(1,0,0,-1,189.8061,122.4243)" d="M0 0H-6.188L-6.704 .516V15.47C-6.704 18.048-7.735 20.11-10.829 20.11-14.438 20.11-16.501 18.048-16.501 13.407V.516L-17.016 0H-23.204L-23.72 .516V25.267L-23.204 25.782H-17.532L-17.016 25.267-16.501 23.72H-15.985C-14.954 24.751-12.891 26.298-9.282 26.298-3.094 26.298 .516 22.173 .516 15.985V.516Z" fill="#ffffff"/>
<path transform="matrix(1,0,0,-1,205.1097,114.689899)" d="M0 0C0-1.031 .516-1.546 1.547-1.546H6.188L6.703-2.063V-7.219L6.188-7.734H1.547C-3.094-7.734-7.219-5.672-7.219 0V11.345L-7.735 11.86H-11.345L-11.86 12.376V17.533L-11.345 18.048H-7.735L-7.219 18.564V23.205L-6.704 23.72H-.516L0 23.205V18.564L.516 18.048H6.188L6.703 17.533V12.376L6.188 11.86H.516L0 11.345Z" fill="#ffffff"/>
<path transform="matrix(1,0,0,-1,227.1172,102.3141)" d="M0 0C-3.609 0-5.672-2.578-5.672-7.219-5.672-11.859-3.609-14.438 0-14.438 3.609-14.438 5.672-11.859 5.672-7.219 5.672-2.578 3.609 0 0 0M0-20.626C-7.735-20.626-12.891-15.47-12.891-7.219-12.891 1.032-7.735 6.188 0 6.188 7.734 6.188 12.891 1.032 12.891-7.219 12.891-15.47 7.734-20.626 0-20.626" fill="#ffffff"/>
<path transform="matrix(1,0,0,-1,94.3882,202.1913)" d="M0 0C0-9.282-5.157-14.438-14.438-14.438-23.72-14.438-28.877-9.282-28.877 0V21.657L-28.361 22.173H-22.173L-21.657 21.657V0C-21.657-5.156-19.595-8.251-14.438-8.251-9.282-8.251-7.219-5.156-7.219 0V21.657L-6.704 22.173H-.516L0 21.657Z" fill="#ffffff"/>
<path transform="matrix(1,0,0,-1,123.3559,216.11389)" d="M0 0H-6.188L-6.704 .516V15.47C-6.704 18.048-7.735 20.11-10.829 20.11-14.438 20.11-16.501 18.048-16.501 13.407V.516L-17.016 0H-23.204L-23.72 .516V25.267L-23.204 25.783H-17.532L-17.016 25.267-16.501 23.72H-15.985C-14.954 24.752-12.891 26.298-9.282 26.298-3.094 26.298 .516 22.173 .516 15.985V.516Z" fill="#ffffff"/>
<path transform="matrix(1,0,0,-1,136.081,216.11389)" d="M0 0H-6.188L-6.704 .516V25.267L-6.188 25.783H0L.516 25.267V.516ZM0 29.908H-6.188L-6.704 30.423V35.58L-6.188 36.095H0L.516 35.58V30.423Z" fill="#ffffff"/>
<path transform="matrix(1,0,0,-1,156.2831,215.5983)" d="M0 0-.516-.516H-6.188L-6.704 0-15.47 19.595V24.752L-14.954 25.267H-10.313L-9.797 24.752-3.609 8.766H-3.094L3.094 24.752 3.61 25.267H8.25L8.766 24.752V19.595Z" fill="#ffffff"/>
<path transform="matrix(1,0,0,-1,184.7359,200.1287)" d="M0 0C0 .516-.516 4.125-4.641 4.125-8.766 4.125-9.282 .516-9.282 0L-8.766-.516H-.516ZM7.735-5.156 7.219-5.672H-8.766L-9.282-6.188C-9.282-7.219-8.25-10.313-4.125-10.313-2.578-10.313-1.031-9.798-.516-8.766L0-8.251H6.188L6.704-8.766C6.188-11.86 3.609-16.501-4.125-16.501-12.891-16.501-17.016-10.313-17.016-3.094-17.016 4.125-12.891 10.313-4.641 10.313 3.609 10.313 7.735 4.125 7.735-3.094Z" fill="#ffffff"/>
<path transform="matrix(1,0,0,-1,213.1884,196.5194)" d="M0 0H-3.609C-7.734 0-9.281-2.063-9.281-6.703V-19.079L-9.797-19.595H-15.985L-16.501-19.079V5.673L-15.985 6.188H-10.313L-9.797 5.673-9.281 4.125H-8.766C-8.766 4.125-7.734 6.188-3.094 6.188H0L.516 5.673V.516Z" fill="#ffffff"/>
<path transform="matrix(1,0,0,-1,227.4607,216.62949)" d="M0 0C-7.219 0-11.345 3.609-11.345 8.766L-10.829 9.282H-4.641L-4.125 8.766C-4.125 6.703-2.578 6.188 0 6.188 2.578 6.188 4.125 6.703 4.125 8.25 4.125 10.313 2.063 10.313-1.031 10.829-4.125 11.345-10.829 12.891-10.829 19.079-10.829 23.204-7.735 26.814 0 26.814 6.188 26.814 10.828 24.235 10.828 19.079L10.313 18.563H4.125L3.609 19.079C3.609 20.11 2.578 20.626 0 20.626-2.578 20.626-3.609 20.11-3.609 18.563-3.609 16.501-.516 16.501 2.578 15.985 5.672 15.47 11.344 14.438 11.344 8.25 11.344 4.125 8.25 0 0 0" fill="#ffffff"/>
<path transform="matrix(1,0,0,-1,249.7256,216.11389)" d="M0 0H-6.188L-6.704 .516V25.267L-6.188 25.783H0L.516 25.267V.516ZM0 29.908H-6.188L-6.704 30.423V35.58L-6.188 36.095H0L.516 35.58V30.423Z" fill="#ffffff"/>
<path transform="matrix(1,0,0,-1,266.0605,208.37949)" d="M0 0C0-1.031 .516-1.547 1.547-1.547H6.188L6.703-2.063V-7.219L6.188-7.734H1.547C-3.094-7.734-7.219-5.672-7.219 0V11.345L-7.735 11.86H-11.345L-11.86 12.376V17.533L-11.345 18.048H-7.735L-7.219 18.564V23.205L-6.704 23.72H-.516L0 23.205V18.564L.516 18.048H6.188L6.703 17.533V12.376L6.188 11.86H.516L0 11.345Z" fill="#ffffff"/>
<path transform="matrix(1,0,0,-1,292.1923,216.62949)" d="M0 0C-2.063-5.156-4.125-8.251-11.345-8.251H-13.923L-14.438-7.734V-2.578L-13.923-2.063H-11.345C-8.766-2.063-8.25-1.547-7.734 0V.516L-15.985 20.626V25.783L-15.47 26.298H-10.829L-10.313 25.783-4.125 8.25H-3.609L2.578 25.783 3.094 26.298H7.735L8.251 25.783V20.626Z" fill="#ffffff"/>
<path transform="matrix(1,0,0,-1,101.0917,169.2691)" d="M0 0H-6.188L-6.704 .516V20.169H-7.219L-14.155 .516-14.671 0H-20.343L-20.859 .516-27.845 20.169H-28.361V.516L-28.877 0H-35.064L-35.58 .516V35.58L-35.064 36.095H-27.329L-26.814 35.58-17.735 10.313H-17.219L-8.25 35.58-7.735 36.095H0L.516 35.58V.516Z" fill="#ffffff"/>
<path transform="matrix(1,0,0,-1,123.0309,153.284)" d="M0 0C0 .516-.516 4.125-4.641 4.125-8.766 4.125-9.282 .516-9.282 0L-8.766-.516H-.516ZM7.735-5.156 7.219-5.672H-8.766L-9.282-6.188C-9.282-7.219-8.25-10.313-4.125-10.313-2.578-10.313-1.031-9.798-.516-8.766L0-8.251H6.188L6.704-8.766C6.188-11.86 3.61-16.501-4.125-16.501-12.891-16.501-17.016-10.313-17.016-3.094-17.016 4.125-12.891 10.313-4.641 10.313 3.61 10.313 7.735 4.125 7.735-3.094Z" fill="#ffffff"/>
<path transform="matrix(1,0,0,-1,144.5228,161.5347)" d="M0 0C0-1.031 .516-1.547 1.547-1.547H6.188L6.703-2.063V-7.219L6.188-7.734H1.547C-3.094-7.734-7.219-5.672-7.219 0V11.345L-7.735 11.86H-11.345L-11.86 12.376V17.533L-11.345 18.048H-7.735L-7.219 18.564V23.205L-6.704 23.72H-.516L0 23.205V18.564L.516 18.048H6.188L6.703 17.533V12.376L6.188 11.86H.516L0 11.345Z" fill="#ffffff"/>
<path transform="matrix(1,0,0,-1,172.7174,149.67459)" d="M0 0H-3.609C-7.735 0-9.282-2.063-9.282-6.703V-19.079L-9.797-19.595H-15.985L-16.501-19.079V5.673L-15.985 6.188H-10.313L-9.797 5.673-9.282 4.125H-8.766C-8.766 4.125-7.735 6.188-3.094 6.188H0L.516 5.673V.516Z" fill="#ffffff"/>
<path transform="matrix(1,0,0,-1,186.9898,149.15889)" d="M0 0C-3.609 0-5.672-2.578-5.672-7.219-5.672-11.86-3.609-14.438 0-14.438 3.609-14.438 5.672-11.86 5.672-7.219 5.672-2.578 3.609 0 0 0M0-20.626C-7.735-20.626-12.891-15.47-12.891-7.219-12.891 1.031-7.735 6.188 0 6.188 7.734 6.188 12.891 1.031 12.891-7.219 12.891-15.47 7.734-20.626 0-20.626" fill="#ffffff"/>
<path transform="matrix(1,0,0,-1,217.1091,149.15889)" d="M0 0C-4.125 0-5.672-3.094-5.672-7.219-5.672-11.344-4.125-14.438 0-14.438 4.125-14.438 5.672-11.344 5.672-7.219 5.672-3.094 4.125 0 0 0M1.547-20.626C-3.094-20.626-5.156-18.048-5.156-18.048H-5.672V-30.344L-6.188-30.86H-12.376L-12.891-30.344V5.157L-12.376 5.673H-6.703L-6.188 5.157-5.672 3.609H-5.156C-5.156 3.609-3.094 6.188 1.547 6.188 7.734 6.188 12.891 1.031 12.891-7.219 12.891-15.47 7.734-20.626 1.547-20.626" fill="#ffffff"/>
<path transform="matrix(1,0,0,-1,245.8197,149.15889)" d="M0 0C-3.609 0-5.672-2.578-5.672-7.219-5.672-11.86-3.609-14.438 0-14.438 3.609-14.438 5.672-11.86 5.672-7.219 5.672-2.578 3.609 0 0 0M0-20.626C-7.735-20.626-12.891-15.47-12.891-7.219-12.891 1.031-7.735 6.188 0 6.188 7.734 6.188 12.891 1.031 12.891-7.219 12.891-15.47 7.734-20.626 0-20.626" fill="#ffffff"/>
<path transform="matrix(1,0,0,-1,269.7515,169.2691)" d="M0 0H-6.188L-6.704 .516V35.58L-6.188 36.095H0L.516 35.58V.516Z" fill="#ffffff"/>
<path transform="matrix(1,0,0,-1,282.9926,169.2691)" d="M0 0H-6.188L-6.704 .516V25.267L-6.188 25.783H0L.516 25.267V.516ZM0 29.908H-6.188L-6.704 30.423V35.58L-6.188 36.095H0L.516 35.58V30.423Z" fill="#ffffff"/>
<path transform="matrix(1,0,0,-1,299.3268,161.5347)" d="M0 0C0-1.031 .516-1.547 1.547-1.547H6.188L6.703-2.063V-7.219L6.188-7.734H1.547C-3.094-7.734-7.219-5.672-7.219 0V11.345L-7.735 11.86H-11.345L-11.86 12.376V17.533L-11.345 18.048H-7.735L-7.219 18.564V23.205L-6.704 23.72H-.516L0 23.205V18.564L.516 18.048H6.188L6.703 17.533V12.376L6.188 11.86H.516L0 11.345Z" fill="#ffffff"/>
<path transform="matrix(1,0,0,-1,323.9124,158.44019)" d="M0 0C0 0-1.031 .516-3.094 .516-6.188 .516-7.734-.516-7.734-2.579-7.734-4.126-6.703-5.157-4.125-5.157-1.547-5.157 .516-3.61 .516-1.547V-.516ZM7.219-10.829H1.547L1.031-10.313 .516-9.282H0C0-9.282-2.063-11.345-5.672-11.345-11.345-11.345-14.954-8.251-14.954-3.094-14.954 4.641-7.734 5.672-3.609 5.672-1.547 5.672 0 5.156 0 5.156L.516 5.672V6.188C.516 8.766 0 9.281-3.094 9.281-4.641 9.281-6.188 9.281-6.703 7.734L-7.219 7.219H-13.407L-13.923 7.734C-13.923 10.828-11.345 15.47-3.094 15.47 5.156 15.47 7.734 11.344 7.734 3.609V-10.313Z" fill="#ffffff"/>
<path transform="matrix(1,0,0,-1,360.6674,169.2691)" d="M0 0H-6.188L-6.704 .516V15.47C-6.704 18.048-7.735 20.11-10.829 20.11-14.438 20.11-16.501 18.048-16.501 13.407V.516L-17.016 0H-23.205L-23.72 .516V25.267L-23.205 25.783H-17.532L-17.016 25.267-16.501 23.72H-15.985C-14.954 24.752-12.891 26.298-9.282 26.298-3.094 26.298 .516 22.173 .516 15.985V.516Z" fill="#ffffff"/>
</g>
</g>
</svg>
